<svg width="24" height="24" viewBox="0 0 24 24" fill="none" xmlns="http://www.w3.org/2000/svg">
<g clip-path="url(#clip0_27_17)">
<path d="M24 0H0V24H24V0Z" fill="#5AB1F2"/>
<path d="M12.0005 7.20001C9.86661 7.20001 8.53358 8.26671 7.99953 10.4001C8.79991 9.33387 9.73298 8.93345 10.7997 9.20024C11.4082 9.35203 11.8436 9.79342 12.3245 10.2823C13.1091 11.0785 14.017 11.9999 16 11.9999C18.1334 11.9999 19.4664 10.9332 20 8.80029C19.2001 9.86652 18.2666 10.2669 17.2003 9.99969C16.5913 9.8479 16.156 9.40651 15.675 8.91762C14.8905 8.12191 13.9825 7.20001 12.0005 7.20001ZM7.99953 11.9999C5.86707 11.9999 4.53312 13.0666 4 15.2C4.79991 14.1333 5.73344 13.7334 6.79967 14.0002C7.40868 14.1519 7.84402 14.5933 8.32499 15.0822C9.10953 15.8784 10.0175 16.7998 12.0005 16.7998C14.1339 16.7998 15.4669 15.7336 16 13.6002C15.2001 14.6664 14.267 15.0668 13.2003 14.8001C12.5918 14.6478 12.1564 14.2059 11.675 13.7175C10.8909 12.9213 9.98254 11.9999 7.99953 11.9999Z" fill="white"/>
</g>
<defs>
<clipPath id="clip0_27_17">
<rect width="24" height="24" fill="white"/>
</clipPath>
</defs>
</svg>
