<svg width="512" height="512" viewBox="0 0 512 512" fill="none" xmlns="http://www.w3.org/2000/svg">
<g clip-path="url(#clip0_25_208)">
<rect width="512" height="512" rx="48" fill="black"/>
<path d="M426.494 80.0005C429.532 80.0005 431.994 82.4628 431.994 85.5001V133.26C431.994 135.84 430.201 138.073 427.682 138.63L260.328 175.656C257.809 176.214 256.016 178.447 256.016 181.026V213.716C256.016 217.232 259.27 219.845 262.703 219.086L425.307 183.128C428.74 182.369 431.994 184.982 431.994 188.498L432.003 344.608C432.003 347.187 430.21 349.421 427.691 349.978L260.328 387.006C257.809 387.564 256.016 389.797 256.016 392.376V426.501C256.016 429.538 253.554 432 250.517 432H85.5586C82.5212 432 80.0589 429.538 80.0589 426.501V378.758C80.0589 376.179 81.8518 373.946 84.3705 373.389L251.705 336.367C254.223 335.809 256.016 333.577 256.016 330.997V298.221C256.016 294.705 252.762 292.092 249.329 292.851L86.7436 328.805C83.3112 329.564 80.0577 326.952 80.0564 323.437L79.9998 167.338C79.9988 164.757 81.7919 162.523 84.3114 161.966L251.705 124.931C254.223 124.374 256.016 122.141 256.016 119.561V85.5008C256.016 82.4634 258.478 80.0012 261.516 80.0012L426.494 80.0005Z" fill="white"/>
</g>
<defs>
<clipPath id="clip0_25_208">
<rect width="512" height="512" fill="white"/>
</clipPath>
</defs>
</svg>
