<svg width="24" height="24" viewBox="0 0 24 24" fill="none" xmlns="http://www.w3.org/2000/svg">
<g clip-path="url(#clip0_24_177)">
<path d="M24 0H0V24H24V0Z" fill="#6C47FF"/>
<path d="M16.6687 5.01602C16.9312 5.19179 16.9536 5.56154 16.7302 5.78488L14.8119 7.70321C14.6385 7.87658 14.3696 7.90397 14.1514 7.79218C13.5061 7.46161 12.7748 7.2751 12 7.2751C9.39043 7.2751 7.27498 9.39055 7.27498 12.0001C7.27498 12.7749 7.46149 13.5062 7.79206 14.1515C7.90385 14.3697 7.87646 14.6387 7.70309 14.8121L5.78476 16.7303C5.56142 16.9537 5.19167 16.9313 5.0159 16.6688C4.12157 15.3337 3.59998 13.7278 3.59998 12.0001C3.59998 7.36091 7.36079 3.6001 12 3.6001C13.7277 3.6001 15.3336 4.12169 16.6687 5.01602Z" fill="white" fill-opacity="0.4"/>
<path d="M14.625 12C14.625 13.4498 13.4498 14.625 12 14.625C10.5503 14.625 9.375 13.4498 9.375 12C9.375 10.5503 10.5503 9.375 12 9.375C13.4498 9.375 14.625 10.5503 14.625 12Z" fill="white"/>
<path d="M16.7303 18.2151C16.9536 18.4385 16.9313 18.8082 16.6688 18.9839C15.3336 19.8783 13.7277 20.3999 12 20.3999C10.2723 20.3999 8.66639 19.8783 7.33121 18.9839C7.0688 18.8082 7.04637 18.4385 7.26971 18.2151L9.18803 16.2968C9.36141 16.1234 9.63038 16.0959 9.8486 16.2078C10.4939 16.5384 11.2252 16.7249 12 16.7249C12.7748 16.7249 13.5061 16.5384 14.1514 16.2078C14.3696 16.0959 14.6386 16.1234 14.812 16.2968L16.7303 18.2151Z" fill="white"/>
</g>
<defs>
<clipPath id="clip0_24_177">
<rect width="24" height="24" fill="white"/>
</clipPath>
</defs>
</svg>
